<svg width="15" height="22" viewBox="0 0 15 22" fill="none" xmlns="http://www.w3.org/2000/svg">
<path fill-rule="evenodd" clip-rule="evenodd" d="M7.78159 1.13787L10.8689 4.32518C11.0806 4.54411 11.0806 4.90194 10.8689 5.12163C10.7664 5.22807 10.6304 5.2862 10.4863 5.2862C10.3415 5.28545 10.207 5.22807 10.1045 5.12163L8.02896 2.97989V14.3974C8.02896 14.7085 7.78605 14.9606 7.48742 14.9606C7.18879 14.9606 6.94587 14.7085 6.94587 14.3974V3.00707L4.89559 5.12163C4.69056 5.33452 4.33473 5.33376 4.13119 5.12238C3.91873 4.90194 3.91873 4.54411 4.13119 4.32518L7.2185 1.13787C7.39679 0.953666 7.60479 0.954421 7.78159 1.13787ZM14 9.11007V19.6791C14 20.4083 13.4176 21.0002 12.7 21.0002H2.3C1.58166 21.0002 1 20.4083 1 19.6791V9.11007C1 8.38005 1.58166 7.78894 2.3 7.78894H5.07829V8.92133H2.79474C2.41886 8.92133 2.11429 9.23085 2.11429 9.61285V19.1763C2.11429 19.5575 2.41886 19.8678 2.79474 19.8678H12.2053C12.5811 19.8678 12.8857 19.5575 12.8857 19.1763V9.61285C12.8857 9.23085 12.5811 8.92133 12.2053 8.92133H9.91429V7.78894H12.7C13.4176 7.78894 14 8.38005 14 9.11007Z" fill="white"/>
<path d="M10.8689 4.32518L11.0486 4.15139L11.0485 4.15124L10.8689 4.32518ZM10.8689 5.12163L10.6889 4.94815L10.6888 4.94821L10.8689 5.12163ZM10.4863 5.2862L10.485 5.5362H10.4863V5.2862ZM10.1045 5.12163L10.2846 4.94821L10.284 4.94765L10.1045 5.12163ZM8.02896 2.97989L8.20849 2.80591L7.77896 2.36269V2.97989H8.02896ZM6.94587 3.00707H7.19587V2.3901L6.76639 2.83304L6.94587 3.00707ZM4.89559 5.12163L4.7161 4.9476L4.71552 4.94821L4.89559 5.12163ZM4.13119 5.12238L4.31127 4.94897L4.31119 4.94889L4.13119 5.12238ZM4.13119 4.32518L4.3106 4.49928L4.31076 4.49911L4.13119 4.32518ZM7.2185 1.13787L7.39807 1.31181L7.39814 1.31174L7.2185 1.13787ZM5.07829 7.78894H5.32829V7.53894H5.07829V7.78894ZM5.07829 8.92133V9.17133H5.32829V8.92133H5.07829ZM9.91429 8.92133H9.66429V9.17133H9.91429V8.92133ZM9.91429 7.78894V7.53894H9.66429V7.78894H9.91429ZM7.60202 1.31181L10.6893 4.49911L11.0485 4.15124L7.96116 0.963932L7.60202 1.31181ZM10.6892 4.49897C10.807 4.62082 10.8074 4.82512 10.6889 4.94815L11.0489 5.29511C11.3538 4.97876 11.3542 4.46739 11.0486 4.15139L10.6892 4.49897ZM10.6888 4.94821C10.6325 5.00666 10.5612 5.0362 10.4863 5.0362V5.5362C10.6997 5.5362 10.9002 5.44949 11.049 5.29505L10.6888 4.94821ZM10.4876 5.0362C10.4107 5.0358 10.3406 5.00638 10.2846 4.94821L9.92443 5.29505C10.0734 5.44976 10.2722 5.53509 10.485 5.5362L10.4876 5.0362ZM10.284 4.94765L8.20849 2.80591L7.84943 3.15388L9.92497 5.29561L10.284 4.94765ZM7.77896 2.97989V14.3974H8.27896V2.97989H7.77896ZM7.77896 14.3974C7.77896 14.5796 7.63897 14.7106 7.48742 14.7106V15.2106C7.93312 15.2106 8.27896 14.8374 8.27896 14.3974H7.77896ZM7.48742 14.7106C7.33587 14.7106 7.19587 14.5796 7.19587 14.3974H6.69587C6.69587 14.8374 7.04171 15.2106 7.48742 15.2106V14.7106ZM7.19587 14.3974V3.00707H6.69587V14.3974H7.19587ZM6.76639 2.83304L4.71611 4.9476L5.07507 5.29565L7.12536 3.1811L6.76639 2.83304ZM4.71552 4.94821C4.60882 5.059 4.41647 5.05822 4.31127 4.94897L3.9511 5.29579C4.25299 5.6093 4.7723 5.61004 5.07566 5.29505L4.71552 4.94821ZM4.31119 4.94889C4.19174 4.82495 4.19258 4.62089 4.3106 4.49928L3.95178 4.15107C3.64488 4.46732 3.64572 4.97893 3.95118 5.29587L4.31119 4.94889ZM4.31076 4.49911L7.39807 1.31181L7.03893 0.963932L3.95162 4.15124L4.31076 4.49911ZM7.39814 1.31174C7.45384 1.25419 7.48924 1.24999 7.50036 1.25C7.51149 1.25001 7.54659 1.25429 7.60158 1.31135L7.9616 0.964384C7.83979 0.837998 7.68249 0.750178 7.50085 0.75C7.31919 0.749822 7.16145 0.837347 7.03887 0.964001L7.39814 1.31174ZM13.75 9.11007V19.6791H14.25V9.11007H13.75ZM13.75 19.6791C13.75 20.2741 13.2757 20.7502 12.7 20.7502V21.2502C13.5595 21.2502 14.25 20.5426 14.25 19.6791H13.75ZM12.7 20.7502H2.3V21.2502H12.7V20.7502ZM2.3 20.7502C1.7236 20.7502 1.25 20.2742 1.25 19.6791H0.75C0.75 20.5425 1.43971 21.2502 2.3 21.2502V20.7502ZM1.25 19.6791V9.11007H0.75V19.6791H1.25ZM1.25 9.11007C1.25 8.51431 1.72351 8.03894 2.3 8.03894V7.53894C1.4398 7.53894 0.75 8.24579 0.75 9.11007H1.25ZM2.3 8.03894H5.07829V7.53894H2.3V8.03894ZM4.82829 7.78894V8.92133H5.32829V7.78894H4.82829ZM5.07829 8.67133H2.79474V9.17133H5.07829V8.67133ZM2.79474 8.67133C2.277 8.67133 1.86429 9.0966 1.86429 9.61285H2.36429C2.36429 9.36511 2.56071 9.17133 2.79474 9.17133V8.67133ZM1.86429 9.61285V19.1763H2.36429V9.61285H1.86429ZM1.86429 19.1763C1.86429 19.6916 2.27683 20.1178 2.79474 20.1178V19.6178C2.56089 19.6178 2.36429 19.4234 2.36429 19.1763H1.86429ZM2.79474 20.1178H12.2053V19.6178H2.79474V20.1178ZM12.2053 20.1178C12.7232 20.1178 13.1357 19.6916 13.1357 19.1763H12.6357C12.6357 19.4234 12.4391 19.6178 12.2053 19.6178V20.1178ZM13.1357 19.1763V9.61285H12.6357V19.1763H13.1357ZM13.1357 9.61285C13.1357 9.0966 12.723 8.67133 12.2053 8.67133V9.17133C12.4393 9.17133 12.6357 9.36511 12.6357 9.61285H13.1357ZM12.2053 8.67133H9.91429V9.17133H12.2053V8.67133ZM10.1643 8.92133V7.78894H9.66429V8.92133H10.1643ZM9.91429 8.03894H12.7V7.53894H9.91429V8.03894ZM12.7 8.03894C13.2758 8.03894 13.75 8.5144 13.75 9.11007H14.25C14.25 8.2457 13.5594 7.53894 12.7 7.53894V8.03894Z" fill="white"/>
</svg>
