<svg width="26" height="26" viewBox="0 0 26 26" fill="none" xmlns="http://www.w3.org/2000/svg">
<path fill-rule="evenodd" clip-rule="evenodd" d="M4.64699 0.779403C4.64699 0.34895 4.99397 0 5.42198 0H6.0602C6.48821 0 6.83518 0.348951 6.83518 0.779404V1.9342L7.19986 1.93421L13.3997 1.93423L18.5055 1.93421V0.779403C18.5055 0.34895 18.8525 0 19.2805 0H19.9187C20.3467 0 20.6937 0.348951 20.6937 0.779404V1.94647C23.2903 2.1276 25.3406 4.29146 25.3406 6.9342V8.80264V20.9409C25.3406 23.7023 23.1021 25.9409 20.3406 25.9409H5C2.23858 25.9409 0 23.7023 0 20.9409V8.80264V6.9342C0 4.29145 2.05029 2.12758 4.64699 1.94647V0.779403ZM4.64699 4.35549V3.95475C3.1565 4.12946 2 5.39677 2 6.9342V7.80264H23.3406V6.9342C23.3406 5.39678 22.1841 4.12948 20.6937 3.95475V4.35549C20.6937 4.78594 20.3467 5.13489 19.9187 5.13489H19.2805C18.8525 5.13489 18.5055 4.78594 18.5055 4.35549V3.93421L13.3997 3.93423L7.19985 3.93421L6.83518 3.93421V4.35549C6.83518 4.78594 6.48821 5.13489 6.0602 5.13489H5.42198C4.99396 5.13489 4.64699 4.78594 4.64699 4.35549ZM23.3406 9.80264H2V20.9409C2 22.5977 3.34315 23.9409 5 23.9409H20.3406C21.9975 23.9409 23.3406 22.5977 23.3406 20.9409V9.80264ZM6.8352 15.4047C7.64087 15.4047 8.29399 14.7478 8.29399 13.9376C8.29399 13.1273 7.64087 12.4705 6.8352 12.4705C6.02954 12.4705 5.37641 13.1273 5.37641 13.9376C5.37641 14.7478 6.02954 15.4047 6.8352 15.4047ZM12.6703 15.4047C13.476 15.4047 14.1291 14.7478 14.1291 13.9376C14.1291 13.1273 13.476 12.4705 12.6703 12.4705C11.8647 12.4705 11.2116 13.1273 11.2116 13.9376C11.2116 14.7478 11.8647 15.4047 12.6703 15.4047ZM19.9643 13.9376C19.9643 14.7478 19.3112 15.4047 18.5055 15.4047C17.6998 15.4047 17.0467 14.7478 17.0467 13.9376C17.0467 13.1273 17.6998 12.4705 18.5055 12.4705C19.3112 12.4705 19.9643 13.1273 19.9643 13.9376ZM6.8352 21.2729C7.64087 21.2729 8.29399 20.6161 8.29399 19.8058C8.29399 18.9956 7.64087 18.3387 6.8352 18.3387C6.02954 18.3387 5.37641 18.9956 5.37641 19.8058C5.37641 20.6161 6.02954 21.2729 6.8352 21.2729ZM14.1291 19.8058C14.1291 20.6161 13.476 21.2729 12.6703 21.2729C11.8647 21.2729 11.2116 20.6161 11.2116 19.8058C11.2116 18.9956 11.8647 18.3387 12.6703 18.3387C13.476 18.3387 14.1291 18.9956 14.1291 19.8058ZM18.5055 21.2729C19.3112 21.2729 19.9643 20.6161 19.9643 19.8058C19.9643 18.9956 19.3112 18.3387 18.5055 18.3387C17.6998 18.3387 17.0467 18.9956 17.0467 19.8058C17.0467 20.6161 17.6998 21.2729 18.5055 21.2729Z" fill="#666666"/>
</svg>
