<svg width="27" height="28" viewBox="0 0 27 28" fill="none" xmlns="http://www.w3.org/2000/svg">
<path d="M7.64062 5.72198L5.00001 5.72197C2.79087 5.72197 1 7.51283 1 9.72197V12.8579M7.64062 5.72198L14.2812 5.722L20.1406 5.80167M7.64062 5.72198V5C7.64062 2.79086 9.43149 1 11.6406 1H16.1406C18.3498 1 20.1406 2.79086 20.1406 5V5.80167M20.1406 5.80167L22.0544 5.82769C24.2421 5.85743 26 7.63939 26 9.82732V12.8579M1 12.8579V22.8333C1 25.0425 2.79086 26.8333 5 26.8333H22C24.2091 26.8333 26 25.0425 26 22.8333V12.8579M1 12.8579C1 12.8579 6.75945 15.1335 11.5469 15.6973M26 12.8579C26 12.8579 20.2405 15.1335 15.4531 15.6973M11.5469 15.6973C12.2237 15.7769 12.8811 15.8224 13.5 15.8224C14.1189 15.8224 14.7763 15.7769 15.4531 15.6973M11.5469 15.6973V15.4899C11.5469 14.4112 12.4213 13.5368 13.5 13.5368V13.5368C14.5787 13.5368 15.4531 14.4112 15.4531 15.4899V15.6973M11.5469 15.6973V15.9868C11.5469 17.0655 12.4213 17.9399 13.5 17.9399V17.9399C14.5787 17.9399 15.4531 17.0655 15.4531 15.9868V15.6973" stroke="#666666" stroke-width="2"/>
</svg>
