<svg width="25" height="26" viewBox="0 0 25 26" fill="none" xmlns="http://www.w3.org/2000/svg">
<path d="M18.3239 6.88887C18.3239 10.1501 15.7075 12.7777 12.5 12.7777C9.29245 12.7777 6.67609 10.1501 6.67609 6.88887C6.67609 3.62758 9.29245 1 12.5 1C15.7075 1 18.3239 3.62758 18.3239 6.88887ZM23.9595 23.5764C24.0548 23.8926 23.9765 24.1716 23.7681 24.4027C23.5449 24.6502 23.1703 24.8333 22.7359 24.8333H2.26413C1.82967 24.8333 1.45513 24.6502 1.23192 24.4027C1.02351 24.1716 0.945151 23.8926 1.04048 23.5764C1.53473 21.937 2.56982 20.3965 4.08892 19.1437C6.29257 17.3264 9.31614 16.2817 12.5 16.2817C15.6839 16.2817 18.7074 17.3264 20.9111 19.1437C22.4302 20.3965 23.4653 21.937 23.9595 23.5764Z" stroke="#666666" stroke-width="2"/>
</svg>
